<svg width="32" height="32" viewBox="0 0 32 32" fill="none" xmlns="http://www.w3.org/2000/svg">
<path d="M26.0394 16V23.625C26.0394 25.5106 26.0394 26.4534 25.4536 27.0392C24.8678 27.625 23.925 27.625 22.0394 27.625H8.60187C8.38909 27.625 8.28269 27.625 8.19283 27.6196C6.6776 27.5286 5.46912 26.3201 5.37811 24.8049C5.37271 24.715 5.37271 24.6086 5.37271 24.3958V24.3958C5.37271 24.183 5.37271 24.0766 5.37811 23.9868C5.46912 22.4716 6.6776 21.2631 8.19283 21.1721C8.28269 21.1667 8.38909 21.1667 8.60188 21.1667H22.0394C23.925 21.1667 24.8678 21.1667 25.4536 20.5809C26.0394 19.9951 26.0394 19.0523 26.0394 17.1667V8.375C26.0394 6.48938 26.0394 5.54657 25.4536 4.96079C24.8678 4.375 23.925 4.375 22.0394 4.375H9.37271C7.48709 4.375 6.54428 4.375 5.9585 4.96079C5.37271 5.54657 5.37271 6.48938 5.37271 8.375V24.3958" stroke="#33363F" stroke-width="2"/>
<path d="M11.8311 10.8333L19.5811 10.8333" stroke="#33363F" stroke-width="2" stroke-linecap="round"/>
</svg>
