<svg width="24" height="25" viewBox="0 0 24 25" fill="none" xmlns="http://www.w3.org/2000/svg">
<path d="M5 10.7468C5 8.53769 6.79086 6.74683 9 6.74683H15C17.2091 6.74683 19 8.53769 19 10.7468V17.7468C19 19.956 17.2091 21.7468 15 21.7468H9C6.79086 21.7468 5 19.956 5 17.7468V10.7468Z" stroke="#4b4b4b" stroke-width="2" stroke-linecap="round" stroke-linejoin="round"/>
<path d="M5 10.7468V10.7468C5 11.8514 5.89543 12.7468 7 12.7468H17C18.1046 12.7468 19 11.8514 19 10.7468V10.7468" stroke="#4b4b4b" stroke-width="2" stroke-linecap="round" stroke-linejoin="round"/>
<path d="M17 20.7468L16.7785 19.418C16.6178 18.4537 15.7834 17.7468 14.8057 17.7468L9.19425 17.7468C8.21658 17.7468 7.3822 18.4537 7.22147 19.418L7 20.7468" stroke="#4b4b4b" stroke-width="2" stroke-linecap="round" stroke-linejoin="round"/>
<path d="M19.2857 12.7468H20C20.5523 12.7468 21 13.1945 21 13.7468V17.7468C21 18.2991 20.5523 18.7468 20 18.7468H19" stroke="#4b4b4b" stroke-width="2" stroke-linecap="round" stroke-linejoin="round"/>
<path d="M4.71429 12.7468H4C3.44771 12.7468 3 13.1945 3 13.7468V17.7468C3 18.2991 3.44772 18.7468 4 18.7468H5" stroke="#4b4b4b" stroke-width="2" stroke-linecap="round" stroke-linejoin="round"/>
<path d="M8 6.74683V5.74683C8 4.64226 8.89543 3.74683 10 3.74683H14C15.1046 3.74683 16 4.64226 16 5.74683V6.74683" stroke="#4b4b4b" stroke-width="2" stroke-linecap="round" stroke-linejoin="round"/>
</svg>
