<svg width="32" height="32" viewBox="0 0 32 32" fill="none" xmlns="http://www.w3.org/2000/svg">
<path d="M8.53452 10.7938C8.94055 7.13958 12.0293 4.375 15.7061 4.375V4.375C19.3828 4.375 22.4716 7.13958 22.8776 10.7938L23.2028 13.721C23.2629 14.2619 23.293 14.5324 23.3407 14.7975C23.4803 15.5735 23.7338 16.3246 24.093 17.0264C24.2158 17.2662 24.3558 17.4995 24.6358 17.9662L25.5137 19.4293C26.3194 20.7723 26.7223 21.4437 26.4351 21.951C26.1478 22.4583 25.3648 22.4583 23.7987 22.4583H7.61344C6.04733 22.4583 5.26427 22.4583 4.97705 21.951C4.68982 21.4437 5.09269 20.7723 5.89845 19.4293L6.77632 17.9662C7.05633 17.4995 7.19633 17.2662 7.31907 17.0264C7.67832 16.3246 7.93185 15.5735 8.07143 14.7975C8.11912 14.5324 8.14917 14.2619 8.20927 13.721L8.53452 10.7938Z" stroke="#33363F" stroke-width="2"/>
<path d="M10.5394 22.4583C10.5394 23.1368 10.673 23.8087 10.9327 24.4355C11.1923 25.0624 11.5729 25.6319 12.0527 26.1117C12.5324 26.5915 13.102 26.9721 13.7288 27.2317C14.3557 27.4914 15.0275 27.625 15.706 27.625C16.3845 27.625 17.0564 27.4914 17.6832 27.2317C18.3101 26.9721 18.8797 26.5915 19.3594 26.1117C19.8392 25.6319 20.2198 25.0624 20.4794 24.4355C20.7391 23.8087 20.8727 23.1368 20.8727 22.4583" stroke="#33363F" stroke-width="2" stroke-linecap="round"/>
</svg>
