<svg width="24" height="25" viewBox="0 0 24 25" fill="none" xmlns="http://www.w3.org/2000/svg">
<path d="M2 9.74683C2 7.86121 2 6.9184 2.58579 6.33261C3.17157 5.74683 4.11438 5.74683 6 5.74683H18C19.8856 5.74683 20.8284 5.74683 21.4142 6.33261C22 6.9184 22 7.86121 22 9.74683V9.74683C22 10.2182 22 10.4539 21.8536 10.6004C21.7071 10.7468 21.4714 10.7468 21 10.7468H3C2.5286 10.7468 2.29289 10.7468 2.14645 10.6004C2 10.4539 2 10.2182 2 9.74683V9.74683Z" fill="#4B4B4B"/>
<path d="M2 18.7468C2 20.6324 2 21.5753 2.58579 22.161C3.17157 22.7468 4.11438 22.7468 6 22.7468H18C19.8856 22.7468 20.8284 22.7468 21.4142 22.161C22 21.5753 22 20.6324 22 18.7468V13.7468C22 13.2754 22 13.0397 21.8536 12.8933C21.7071 12.7468 21.4714 12.7468 21 12.7468H3C2.5286 12.7468 2.29289 12.7468 2.14645 12.8933C2 13.0397 2 13.2754 2 13.7468V18.7468Z" stroke="#4B4B4B" stroke-width="2"/>
<path d="M7 3.74683L7 6.74683" stroke="#4B4B4B" stroke-width="2" stroke-linecap="round"/>
<path d="M17 3.74683L17 6.74683" stroke="#4B4B4B" stroke-width="2" stroke-linecap="round"/>
</svg>
