<svg width="28" height="29" viewBox="0 0 28 29" fill="none" xmlns="http://www.w3.org/2000/svg">
<path fill-rule="evenodd" clip-rule="evenodd" d="M18.3101 17.4748C20.8904 14.3448 20.7178 9.70486 17.7923 6.77685C14.6834 3.66528 9.64286 3.66528 6.53395 6.77685C3.42504 9.88842 3.42504 14.9333 6.53395 18.0448C9.45946 20.9729 14.0954 21.1456 17.2227 18.563C17.3203 18.3257 17.4654 18.1033 17.6581 17.9105C17.8507 17.7177 18.0729 17.5724 18.3101 17.4748ZM19.0883 22.1716C14.4182 25.4991 7.8954 25.0667 3.70673 20.8745C-0.963605 16.2001 -0.963606 8.62155 3.70673 3.94722C8.37707 -0.727116 15.9492 -0.727116 20.6195 3.94722C24.8082 8.13947 25.2402 14.6678 21.9155 19.3419L27.3606 24.7916C28.1413 25.573 28.1413 26.8399 27.3606 27.6213C26.5799 28.4027 25.3141 28.4027 24.5334 27.6213L19.0883 22.1716Z" fill="black"/>
</svg>
